<?xml version="1.0" encoding="UTF-8"?>
<!DOCTYPE svg PUBLIC "-//W3C//DTD SVG 1.1//EN" "http://www.w3.org/Graphics/SVG/1.1/DTD/svg11.dtd">
<!-- Creator: CorelDRAW -->
<svg xmlns="http://www.w3.org/2000/svg" xml:space="preserve" width="5.00216in" height="5.11811in" version="1.1" style="shape-rendering:geometricPrecision; text-rendering:geometricPrecision; image-rendering:optimizeQuality; fill-rule:evenodd; clip-rule:evenodd"
viewBox="0 0 5002 5118"
 xmlns:xlink="http://www.w3.org/1999/xlink"
 xmlns:svg="http://www.w3.org/2000/svg">
 <defs>
  <style type="text/css">
   <![CDATA[
    .fil0 {fill:#FFF212}
    .fil1 {fill:#00A859}
    .fil2 {fill:red}
    .fil3 {fill:#00A859;fill-rule:nonzero}
   ]]>
  </style>
 </defs>
 <g id="Layer_x0020_1">
  <metadata id="CorelCorpID_0Corel-Layer"/>
 </g>
 <g id="svg2">
  <metadata id="CorelCorpID_1Corel-Layer"/>
  <path class="fil0" d="M2501 5022c-211,157 -486,73 -759,-69 -254,-132 -493,-264 -719,-223 -62,-240 -254,-443 -467,-632 -237,-208 -408,-426 -369,-708 -206,-107 -206,-423 -127,-821 49,-229 80,-458 -7,-687 181,-161 275,-399 368,-646 120,-318 282,-589 612,-569 -6,-126 59,-245 216,-312 404,-173 883,-177 1252,-344 369,146 851,159 1259,344 156,71 215,186 209,312 331,-20 492,251 612,569 93,247 187,485 368,646 -87,229 -55,458 -7,687 80,398 79,714 -127,821 40,282 -132,500 -369,708 -213,189 -405,392 -467,632 -225,-41 -465,91 -719,223 -273,142 -548,226 -759,69z"/>
  <path class="fil0" d="M2172 4694c115,16 222,0 315,-67l7 -5 6 5c94,67 201,83 316,67 115,-17 238,-67 361,-130l27 -13c218,-112 425,-218 623,-188 29,-105 86,-202 159,-293 76,-93 168,-181 265,-265 107,-92 199,-186 259,-288 60,-101 90,-210 72,-333l-1 -8 7 -3c90,-46 135,-137 149,-260 14,-125 -4,-282 -39,-458l0 0c-23,-103 -41,-206 -44,-308 -3,-101 10,-203 48,-304 -81,-71 -142,-159 -194,-256 -53,-99 -95,-207 -138,-317 -54,-141 -117,-271 -203,-363 -86,-91 -195,-146 -341,-137l-12 0 0 -12c3,-57 -10,-116 -45,-165 -30,-43 -77,-79 -143,-101 -163,-55 -339,-94 -513,-132 -218,-47 -433,-94 -619,-173 -186,79 -402,126 -619,173 -174,38 -350,77 -514,132 -65,22 -112,58 -142,101 -35,49 -48,108 -45,165l0 12 -12 0c-146,-9 -255,46 -341,137 -86,92 -149,222 -203,363 -43,110 -85,218 -138,317 -52,97 -113,185 -194,256 38,101 50,203 48,304 -3,102 -22,205 -44,308l0 0c-35,176 -53,333 -39,458 14,123 59,214 149,260l7 3 -1 8c-18,123 12,232 72,333 60,102 152,196 258,288 98,84 190,172 265,265 74,91 131,188 160,293 197,-30 404,76 623,188l27 13c122,63 245,113 361,130zm319 -2982c-41,-143 -34,-272 108,-398 103,-90 120,-226 103,-370 105,166 156,333 -4,486 -101,97 -177,153 -207,282zm-190 -352c-180,-254 -74,-413 48,-578 103,-140 159,-299 162,-455 24,114 42,233 21,343 -14,74 -48,155 -107,223 -130,148 -130,279 -124,467zm110 170c-105,-174 -75,-339 59,-502 104,-127 127,-282 110,-449 115,243 113,444 -9,588 -113,133 -163,245 -160,363zm1411 697c-79,119 -167,185 -305,224 -77,23 -171,33 -287,49 -153,21 -278,88 -367,175 -36,35 -67,75 -91,115 32,-130 105,-245 254,-333 63,-38 138,-82 234,-98 154,-25 262,-45 335,-86 141,-78 161,-196 176,-315 -48,81 -123,155 -234,189 -148,46 -298,42 -437,109 -128,61 -224,140 -282,231 25,-114 104,-227 177,-284 5,-4 10,-8 15,-12 168,-124 410,-93 557,-204 71,-54 138,-122 150,-237 -62,75 -132,133 -233,172 -162,63 -312,52 -469,146 -56,33 -109,85 -148,147 14,-122 88,-201 155,-254 5,-3 9,-7 14,-10 151,-112 340,-98 497,-186 71,-39 120,-98 143,-201 -56,68 -122,109 -213,144 -62,24 -137,48 -225,67 -73,15 -142,41 -200,75 -118,71 -221,202 -172,366 -51,83 -77,181 -51,275 -57,93 -75,196 -44,302 -50,85 -70,176 -57,258 74,-92 147,-165 216,-223 268,-227 494,-68 713,-228 96,-70 158,-187 179,-373zm-3108 242c-52,-5 -89,-20 -113,-46 -24,-26 -34,-63 -29,-111 4,-46 18,-80 43,-101 25,-21 61,-30 107,-26l25 2 108 9c13,1 24,2 32,2 7,0 16,1 26,0 -2,12 -4,24 -5,38 -1,14 -2,27 -2,38 -9,-1 -17,-3 -25,-4 -8,-1 -18,-3 -32,-4 -32,-4 -68,-8 -107,-11l-20 -2c-37,-3 -65,2 -84,14 -19,13 -30,34 -33,64 -2,29 6,52 24,68 19,17 48,27 86,31l11 1 107 8c15,2 26,2 34,3 8,0 16,0 24,0 -1,7 -2,15 -3,24 -1,9 -1,17 -1,24 -11,-3 -20,-5 -27,-6 -8,-1 -18,-2 -30,-4 -32,-4 -67,-7 -107,-11l-9 0zm3610 464c-31,-6 -65,-12 -102,-19 -39,-7 -73,-12 -103,-17 -16,-2 -28,-4 -36,-5 -7,-1 -15,-2 -22,-2l5 -25 3 -12 5 -30 9 -55c5,-30 16,-52 34,-66 17,-14 39,-19 65,-14 25,4 44,18 55,42 6,13 10,28 10,46 24,-8 52,-18 84,-31l29 -12c19,-8 32,-14 41,-17 8,-4 16,-8 23,-12 -3,12 -6,26 -9,42 -3,16 -5,30 -6,42 -20,6 -45,15 -75,26 -36,13 -67,24 -92,34l0 0c34,7 66,12 94,16 16,3 28,4 35,5 8,1 16,2 23,2 -3,11 -5,24 -8,38 -2,14 -4,26 -5,37 -7,-2 -15,-4 -22,-5 -8,-2 -19,-5 -35,-8zm-101 -87l3 -14c4,-17 0,-32 -11,-44 -10,-13 -26,-21 -46,-25 -18,-3 -32,-1 -43,6 -11,7 -18,19 -21,35 -1,7 -2,14 -2,21l120 21zm64 -245l-149 -2c0,16 0,32 0,48 1,18 2,31 3,37 -5,-1 -12,-1 -19,-1 -7,-1 -13,0 -19,1 1,-10 3,-26 4,-48 1,-23 2,-44 2,-64l1 -8 0 -8c0,-20 0,-41 -1,-63 0,-23 -1,-39 -2,-48 6,1 12,1 19,1 7,0 14,0 19,-1 -1,6 -2,19 -4,37 -1,16 -2,32 -2,49l149 2c35,1 62,1 81,1 19,0 41,-1 64,-2 -1,11 -2,24 -2,38 0,14 0,26 1,38 -24,-2 -45,-4 -64,-5 -19,0 -47,-1 -81,-2zm93 -186c-31,-11 -67,-23 -107,-36 -66,-21 -122,-37 -168,-49 0,-7 0,-14 0,-19 -1,-5 -2,-11 -3,-18 42,-19 94,-45 157,-77 37,-19 70,-36 100,-52 17,-9 29,-16 37,-20 7,-4 13,-8 18,-11 0,12 1,26 3,42 1,15 2,29 4,41 -16,6 -28,11 -36,14 -7,3 -14,6 -20,9l-34 16c-1,19 0,40 1,61 2,19 5,35 9,50 12,3 24,7 36,10 4,1 10,3 18,4 8,2 22,4 41,8 0,7 1,15 1,25 1,9 2,17 4,24 -5,-2 -12,-5 -20,-8 -8,-3 -22,-7 -41,-14zm-185 -93c22,7 47,15 73,22l36 11c0,-13 0,-26 -2,-41 -1,-14 -3,-29 -6,-42l-1 1c-37,17 -70,34 -100,49l0 0zm-3571 241c-15,3 -27,4 -35,6 -7,1 -15,3 -22,4 0,-6 0,-12 -1,-20 -1,-8 -2,-14 -4,-20 7,0 15,-1 23,-1 7,-1 19,-2 35,-3 31,-3 66,-7 105,-12 38,-5 72,-9 102,-14 16,-2 28,-4 35,-5 8,-2 15,-3 23,-5 0,7 0,15 1,23 1,8 3,16 4,22 -33,34 -73,77 -118,131l-80 95 61 -7c38,-5 73,-9 104,-14 15,-2 27,-4 34,-5 8,-2 16,-3 23,-5 0,6 0,13 1,21 1,7 2,14 4,20 -8,0 -15,0 -23,1 -7,0 -19,1 -35,3 -31,3 -66,7 -105,11 -64,8 -117,16 -160,22 0,-8 0,-14 -1,-20 -1,-6 -2,-13 -4,-21 41,-42 90,-97 147,-165l53 -63 -63 7c-38,5 -73,10 -104,14zm49 322c30,-7 64,-14 101,-23 38,-8 72,-16 102,-24 15,-4 27,-7 34,-9 7,-3 15,-5 22,-7 1,11 4,23 7,37 3,14 7,26 10,37 -7,1 -15,2 -22,3 -8,2 -20,4 -35,7 -31,6 -65,14 -102,22 -38,9 -72,17 -102,25 -15,4 -27,7 -34,9 -7,2 -15,5 -21,7 -2,-11 -5,-24 -8,-37 -3,-14 -6,-27 -10,-37 8,-1 15,-2 23,-4 8,-1 19,-3 35,-6zm224 58c13,-12 22,-21 28,-26 6,-6 12,-12 17,-18 4,12 8,25 14,39 5,15 11,28 16,39 -14,10 -24,17 -31,22 -6,5 -12,9 -17,14l-59 51 -86 75 0 0 79 -1c42,-1 79,-2 113,-3 2,0 7,0 15,-1 8,-1 23,-2 45,-4 1,7 4,15 7,23 4,9 7,16 10,23 -4,0 -10,-1 -18,-1 -9,0 -24,-1 -45,-2l-112 -1c-69,0 -127,1 -173,2 -2,-8 -5,-15 -7,-21 -2,-5 -5,-12 -9,-20 35,-29 79,-68 130,-114l83 -76zm-131 389c7,-3 14,-6 21,-9 7,-3 17,-9 31,-16 28,-15 60,-32 94,-51 35,-19 66,-37 93,-53 14,-8 24,-14 31,-18 6,-4 12,-8 18,-13 3,8 8,18 14,31 6,12 12,24 18,34l7 14c10,17 20,34 30,50 10,16 16,25 19,29 -6,2 -13,5 -20,9 -7,4 -13,8 -18,12 -1,-5 -6,-15 -13,-30 -7,-14 -14,-29 -22,-43l-4 -7 -10 -17 -91 51 18 32c7,11 14,23 21,35 8,12 13,20 16,24 -5,2 -12,5 -18,8 -7,4 -13,8 -18,12 -1,-5 -5,-14 -11,-27 -6,-12 -12,-24 -19,-36l-18 -32 -100 55 1 3 6 11c9,16 19,32 29,48 10,16 16,26 21,31 -7,2 -13,5 -20,9 -7,4 -14,8 -19,12 -5,-12 -12,-27 -21,-44 -8,-16 -15,-29 -20,-39l-8 -14c-6,-10 -12,-21 -19,-33 -8,-12 -14,-21 -19,-28zm168 175c26,-17 55,-37 86,-59 32,-22 60,-42 85,-60 13,-10 22,-17 28,-22 6,-5 12,-10 18,-14l13 21 7 10 18 26 33 44c17,25 24,48 22,71 -2,22 -14,41 -36,56 -21,15 -44,18 -69,9 -13,-4 -27,-13 -40,-25 -11,22 -23,49 -36,81l-13 29c-7,19 -13,33 -16,41 -4,9 -6,17 -9,25 -6,-11 -14,-23 -23,-36 -9,-13 -18,-25 -26,-34 11,-19 22,-43 36,-72 16,-34 29,-64 40,-89l0 0c-29,20 -55,38 -78,55 -13,10 -22,17 -28,22 -6,5 -12,9 -18,14 -5,-9 -12,-20 -20,-32 -9,-11 -16,-21 -23,-30 6,-4 13,-8 19,-12 7,-4 17,-10 30,-19zm133 -10l7 12c10,15 24,23 40,24 16,2 33,-3 50,-15 15,-11 23,-22 26,-35 3,-13 0,-26 -10,-39 -4,-6 -8,-12 -13,-17l-100 70zm286 196c7,-12 9,-24 8,-34 -2,-10 -7,-21 -17,-31 -9,-10 -20,-16 -32,-17 -12,-1 -22,2 -31,10 -9,9 -14,19 -14,32 0,12 4,32 13,58 8,27 11,50 7,69 -3,20 -13,37 -28,51 -22,21 -48,30 -77,27 -30,-3 -56,-16 -78,-40 -9,-10 -18,-21 -25,-34 -7,-13 -13,-26 -17,-39 11,-5 19,-10 27,-14 7,-4 15,-9 25,-15l7 7c-9,16 -12,30 -11,43 1,12 7,25 19,37 10,11 23,18 36,19 14,2 26,-2 36,-11 9,-9 14,-20 14,-33 0,-13 -5,-34 -14,-62 -8,-26 -11,-48 -7,-67 3,-18 12,-35 28,-49 21,-20 45,-29 72,-27 28,1 52,13 72,35 9,10 17,20 23,32 6,11 11,25 15,39 -8,4 -16,7 -22,10 -6,3 -14,6 -22,10l-7 -6zm-81 195c21,-23 44,-49 69,-78 26,-29 48,-56 68,-79 10,-13 17,-22 22,-28 5,-6 9,-12 13,-18 8,8 18,16 28,26 11,9 21,17 30,24 -5,5 -11,10 -16,16 -6,5 -14,14 -25,26 -20,23 -43,49 -69,78 -25,29 -48,55 -67,79 -11,12 -18,22 -23,28 -4,6 -9,12 -13,18 -8,-8 -17,-17 -28,-26 -11,-9 -21,-17 -30,-24 6,-5 11,-11 17,-16 5,-6 13,-14 24,-26zm203 55l81 -125c-13,-9 -27,-17 -41,-25 -16,-9 -27,-15 -33,-17 4,-5 8,-10 12,-16 3,-6 7,-11 9,-17 7,7 20,16 38,29 18,13 36,25 53,36l7 5 7 4c16,11 34,22 53,33 19,12 33,19 42,24 -4,4 -7,9 -11,15 -4,6 -7,12 -9,17 -5,-5 -15,-12 -30,-23 -13,-10 -26,-19 -40,-28l-81 125c-19,29 -33,52 -43,69 -10,16 -21,34 -33,55 -8,-7 -19,-14 -30,-22 -12,-7 -23,-14 -33,-19 14,-19 26,-36 37,-52 11,-16 26,-39 45,-68zm112 176c25,-22 53,-47 84,-75 52,-47 94,-87 127,-121 6,4 11,7 16,9 5,2 10,4 17,7 -4,46 -8,104 -11,174 -3,41 -4,79 -5,112 -1,20 -1,34 -1,43 0,8 0,15 0,21 -11,-6 -23,-12 -38,-19 -14,-6 -26,-12 -38,-16 3,-18 5,-30 6,-38 1,-8 2,-16 3,-22l3 -38c-17,-10 -35,-20 -54,-29 -17,-8 -32,-14 -47,-18 -9,9 -18,18 -27,26 -3,3 -7,8 -12,14 -6,6 -15,17 -28,32 -6,-4 -14,-8 -22,-12 -8,-4 -16,-7 -23,-9 5,-3 10,-8 17,-13 6,-6 17,-15 33,-28zm172 -114c-17,16 -35,33 -55,52l-27 26c10,6 22,12 36,18 13,7 26,12 39,17l0 -2c3,-40 6,-77 7,-111l0 0zm308 84c-1,-14 -5,-25 -11,-33 -7,-8 -17,-14 -30,-18 -14,-4 -26,-3 -37,2 -11,5 -18,13 -21,25 -3,12 -2,23 4,34 7,11 20,25 41,44 21,18 35,37 42,55 7,18 8,38 2,58 -8,29 -26,50 -52,63 -27,13 -56,14 -87,5 -14,-3 -26,-9 -39,-16 -13,-7 -24,-15 -35,-25 7,-9 12,-18 16,-25 4,-7 9,-16 14,-26l9 2c1,18 5,32 13,42 7,11 19,18 35,23 15,4 29,3 41,-2 13,-6 21,-16 25,-29 3,-12 2,-24 -5,-35 -7,-11 -21,-26 -44,-46 -20,-18 -33,-36 -40,-53 -7,-18 -8,-37 -2,-57 8,-28 24,-48 49,-61 24,-13 50,-15 79,-7 13,4 25,9 36,16 12,6 23,15 34,26 -6,7 -11,14 -15,19 -4,6 -8,13 -13,21l-9 -2zm187 245c-1,16 -2,28 -2,36 0,7 0,15 0,22 -6,-1 -13,-2 -20,-3 -8,0 -15,-1 -21,0 2,-7 3,-15 4,-23 1,-7 3,-19 4,-35 4,-31 7,-66 11,-104 3,-39 6,-73 8,-104 1,-16 1,-28 1,-35 1,-8 1,-16 0,-23 7,1 15,2 23,3 8,1 16,1 23,1 26,39 60,87 103,143l76 97 6 -60c3,-39 6,-73 8,-105 1,-15 2,-27 2,-35 0,-8 0,-15 0,-23 6,2 13,3 20,3 8,1 15,1 21,1 -1,7 -3,14 -4,22 -1,8 -2,20 -4,35 -4,31 -7,66 -10,105 -6,64 -10,118 -12,161 -8,-1 -15,-2 -21,-3 -5,0 -12,0 -21,0 -33,-49 -76,-108 -130,-179l-51 -65 -6 64c-3,38 -6,73 -8,104zm318 79c0,-7 0,-15 0,-23 0,-7 -1,-19 -2,-35 -2,-32 -5,-67 -8,-107 -3,-39 -7,-75 -10,-106 -2,-16 -4,-28 -5,-35 -1,-8 -2,-15 -4,-23 9,1 20,1 34,0 14,0 27,-1 39,-2l15 -2c20,-1 39,-3 58,-6 18,-2 30,-4 34,-6 0,7 0,14 0,22 1,8 2,15 4,22 -6,-1 -16,-1 -33,-1 -16,1 -32,2 -49,3l-7 1 -19 2 9 103 36 -3c14,-1 27,-3 41,-5 14,-2 23,-3 28,-5 0,6 0,13 1,21 0,8 1,14 3,20 -5,0 -15,0 -29,0 -14,1 -27,1 -41,3l-36 3 10 114 2 0 13 -1c18,-2 37,-4 55,-7 19,-2 31,-4 37,-6 -1,6 0,14 0,22 1,8 2,15 4,21 -14,0 -30,1 -49,2 -18,1 -33,2 -44,3l-15 1c-12,1 -25,2 -39,4 -14,2 -25,4 -33,6zm400 -58c-54,13 -101,10 -141,-10 -40,-20 -65,-53 -77,-100 -13,-51 -7,-97 18,-136 25,-40 65,-66 119,-80 19,-4 39,-7 61,-8 22,0 42,1 59,5 0,11 0,20 0,27 0,8 0,17 1,28l-5 1c-15,-13 -30,-22 -47,-26 -17,-4 -35,-4 -54,1 -35,8 -59,28 -73,59 -14,30 -16,68 -5,111 10,38 27,66 53,84 25,17 55,22 89,13 15,-3 29,-9 42,-16 -1,-16 -4,-35 -9,-55 -5,-21 -12,-40 -19,-56 11,-2 23,-5 37,-9 14,-3 27,-7 38,-11 0,6 0,13 2,20 1,8 4,20 8,37l3 12c5,19 9,33 11,40 2,8 5,15 7,20 -32,21 -71,37 -118,49zm190 -57c-2,-7 -5,-14 -7,-21 -3,-7 -7,-19 -12,-34 -11,-29 -25,-62 -39,-99 -15,-37 -29,-70 -41,-99 -7,-14 -12,-25 -15,-32 -3,-7 -7,-14 -10,-20 8,-2 19,-6 32,-10 13,-5 25,-9 36,-14l14 -5c19,-8 37,-16 54,-23 17,-8 27,-13 31,-16 1,6 4,13 7,21 3,7 6,14 9,19 -5,1 -15,4 -31,9 -15,6 -30,11 -46,18l-7 3 -18 7 39 96 34 -14c13,-5 25,-10 38,-16 13,-6 21,-10 25,-13 2,6 4,12 7,19 3,8 6,14 9,19 -5,1 -14,4 -28,8 -13,5 -26,9 -38,15l-34 13 43 106 2 0 12 -5c17,-7 34,-14 51,-22 17,-8 28,-14 33,-17 2,6 4,13 7,20 3,8 6,15 10,20 -13,4 -29,9 -46,16 -18,6 -32,11 -42,15l-14 6c-11,5 -23,10 -36,16 -12,5 -22,10 -29,14zm188 -149c-15,-27 -33,-57 -52,-90 -19,-34 -37,-64 -53,-90 -8,-14 -14,-24 -19,-30 -4,-7 -8,-13 -12,-19l22 -11 11 -7 27 -15 47 -29c26,-15 50,-20 72,-16 22,4 40,18 53,41 13,22 14,46 4,69 -6,13 -16,26 -30,38 22,12 48,27 78,43l28 15c18,9 31,16 40,20 8,4 16,8 23,11 -11,5 -24,12 -37,20 -14,8 -26,15 -37,22 -17,-12 -40,-25 -68,-41 -32,-19 -61,-35 -85,-48l0 0c17,31 33,58 48,82 8,14 15,24 19,30 4,7 9,13 13,19 -10,5 -21,11 -34,18 -12,7 -23,14 -32,20 -3,-6 -6,-13 -10,-20 -3,-7 -9,-18 -16,-32zm2 -133l12 -6c15,-9 24,-21 27,-38 3,-16 -1,-33 -11,-51 -9,-15 -20,-25 -32,-29 -13,-4 -26,-2 -40,6 -7,4 -12,8 -18,12l62 106zm242 -15c-18,-25 -38,-54 -61,-85 -23,-31 -43,-59 -62,-83 -10,-13 -17,-22 -22,-28 -5,-6 -10,-12 -15,-17 10,-6 20,-14 32,-22 11,-8 21,-16 30,-23 4,6 7,12 12,19 4,6 10,16 19,30 18,25 38,53 61,84 23,32 43,60 62,84 10,13 17,22 22,28 5,6 10,12 15,17 -10,6 -20,13 -32,22 -11,8 -21,16 -30,23 -4,-6 -8,-13 -12,-19 -4,-7 -11,-17 -19,-30zm63 -324c-3,-3 -7,-7 -13,-12 -6,-5 -17,-13 -32,-25 8,-8 17,-17 26,-27 10,-10 18,-19 25,-28 36,36 62,62 79,78 17,16 32,30 47,43l19 17 52 44c30,27 47,56 51,86 4,29 -5,56 -27,81l-22 -8c10,-13 13,-26 9,-39 -5,-15 -21,-33 -46,-55l-63 -59c-39,-37 -74,-69 -105,-96zm244 49c-15,-30 -33,-63 -54,-99 -34,-61 -64,-112 -89,-151 5,-5 9,-10 12,-14 3,-4 7,-9 11,-15 44,14 100,31 167,50 40,12 76,22 108,30 19,5 33,9 41,11 8,2 15,3 21,4 -8,10 -17,20 -27,33 -9,12 -17,23 -24,33 -16,-6 -28,-11 -36,-14 -7,-3 -15,-5 -21,-7l-36 -12c-14,14 -27,29 -40,46 -12,14 -21,28 -28,42 6,11 13,22 19,32 2,3 6,9 11,15 4,7 13,18 25,34 -5,5 -11,12 -17,19 -5,7 -10,14 -14,20 -2,-5 -5,-11 -9,-19 -4,-8 -10,-21 -20,-38zm-72 -194c11,20 24,42 38,65l19 33c9,-9 18,-20 27,-31 9,-12 17,-24 24,-35l-2 -1c-38,-11 -74,-22 -106,-31l0 0zm298 -122c14,7 25,12 32,16 7,3 13,6 20,9 -6,10 -12,20 -19,33 -7,12 -13,24 -18,34 -6,-4 -12,-9 -19,-13 -6,-4 -16,-10 -30,-18 -27,-16 -57,-33 -91,-51 -34,-19 -64,-36 -91,-50 -15,-8 -25,-13 -32,-16 -7,-4 -14,-7 -21,-10 6,-9 13,-20 20,-32 7,-13 13,-24 17,-34 6,4 12,8 19,12 7,4 17,11 30,19 24,14 50,28 79,44l0 -1c-8,-23 -18,-49 -30,-80l-12 -29c-4,-10 -8,-20 -12,-28 -4,-9 -10,-21 -19,-37 5,-7 10,-15 16,-25 5,-10 10,-19 13,-27 2,6 4,14 7,24 3,10 9,27 18,52l20 59 14 39 53 -4c38,-3 73,-6 104,-9 46,-5 69,-8 71,-8 -8,12 -15,25 -24,40 -8,15 -15,29 -21,41 -10,-1 -19,-1 -28,-1 -9,0 -22,1 -39,2l-11 0c-36,2 -67,4 -93,7l0 0c27,15 53,29 77,42zm100 -177c-24,-22 -53,-47 -84,-74 -53,-46 -99,-83 -136,-112 3,-6 6,-12 7,-17 2,-4 3,-10 5,-17 46,-2 104,-5 174,-10 42,-3 79,-6 112,-9 20,-2 34,-3 42,-4 9,-1 16,-2 22,-3 -5,11 -10,25 -15,39 -4,15 -8,29 -11,40 -18,0 -31,-1 -39,-1 -8,0 -15,0 -22,0l-38 2c-8,18 -15,36 -22,57 -6,17 -10,33 -12,49 10,8 20,16 29,23 4,3 9,6 15,11 7,4 19,12 36,23 -3,7 -6,15 -9,24 -3,8 -5,16 -7,24 -4,-5 -9,-10 -15,-15 -6,-6 -17,-16 -32,-30zm-134 -157c18,15 37,31 58,48l29 24c6,-11 10,-24 15,-38 4,-14 8,-28 11,-41l-2 0c-40,2 -77,4 -111,7l0 0zm-2023 40c40,48 112,25 187,11 61,-11 117,-37 161,-27 31,7 53,27 68,70 -31,-8 -61,-10 -94,-8 -54,2 -103,12 -159,27 -80,22 -115,50 -155,40 -35,-9 -30,-54 -8,-113zm-55 147c48,45 126,18 208,0 67,-15 128,-44 177,-37 35,5 60,24 79,66 -34,-6 -68,-6 -104,-3 -59,6 -114,18 -175,37 -87,27 -125,56 -170,49 -40,-7 -37,-52 -15,-112zm-48 132c25,37 56,54 99,50 37,-4 78,-17 120,-29 72,-20 145,-49 198,-41 39,5 66,28 78,72 -37,-5 -70,-8 -109,-4 -66,5 -125,24 -192,43 -95,27 -137,49 -186,42 -49,-6 -32,-72 -8,-133zm-56 163c28,37 64,54 113,50 43,-4 90,-17 139,-29 82,-20 164,-62 225,-55 44,6 75,47 89,92 -41,-11 -79,-14 -124,-11 -75,6 -143,25 -220,44 -109,27 -167,63 -223,56 -56,-7 -27,-87 1,-147zm601 226c-5,0 -15,0 -25,0 -35,-75 -83,-131 -230,-79 -67,24 -136,45 -205,64 -121,32 -188,-3 -210,-88 76,-206 151,-412 227,-617 19,28 41,52 65,46 78,-20 151,-52 230,-69 66,-14 120,-1 148,43 28,-44 82,-57 148,-43 79,17 152,49 230,69 24,6 46,-18 65,-46 76,205 151,411 226,617 -21,85 -88,120 -209,88 -69,-19 -138,-40 -205,-64 -147,-52 -195,4 -230,79 -10,0 -20,0 -25,0zm441 -668c-40,48 -111,25 -186,11 -61,-11 -118,-37 -161,-27 -31,7 -53,27 -68,70 31,-8 61,-10 93,-8 54,2 104,12 160,27 79,22 115,50 155,40 35,-9 30,-54 7,-113zm55 147c-47,45 -125,18 -208,0 -67,-15 -128,-44 -176,-37 -36,5 -61,24 -80,66 35,-6 69,-6 104,-3 60,6 115,18 176,37 87,27 125,56 170,49 39,-7 36,-52 14,-112zm49 132c-25,37 -57,54 -99,50 -37,-4 -78,-17 -121,-29 -71,-20 -144,-49 -197,-41 -39,5 -67,28 -79,72 38,-5 71,-8 110,-4 66,5 125,24 192,43 95,27 137,49 186,42 49,-6 32,-72 8,-133zm56 163c-28,37 -65,54 -113,50 -43,-4 -90,-17 -139,-29 -82,-20 -164,-62 -225,-55 -45,6 -75,47 -89,92 41,-11 79,-14 123,-11 75,6 144,25 221,44 109,27 166,63 222,56 57,-7 28,-87 0,-147zm-996 -1589c-30,-82 -82,-167 -157,-221 -73,-52 -147,-90 -243,-115 -184,-49 -307,-74 -347,-267 88,114 215,164 406,210 207,50 376,176 341,393zm40 246c-15,-122 -88,-201 -155,-254 -5,-3 -9,-7 -14,-10 -151,-112 -340,-98 -497,-186 -71,-39 -120,-98 -143,-201 56,68 122,109 213,144 62,24 137,48 225,67 73,15 142,41 199,75 119,71 222,202 173,366 51,83 77,181 51,275 57,93 75,196 44,302 50,85 70,176 57,258 -74,-92 -147,-165 -216,-223 -269,-227 -495,-68 -713,-228 -96,-70 -158,-187 -179,-373 79,119 167,185 305,224 77,23 170,33 287,49 153,21 278,88 366,175 37,35 68,75 92,115 -32,-130 -106,-245 -254,-333 -63,-38 -138,-82 -234,-98 -154,-25 -262,-45 -336,-86 -140,-78 -160,-196 -175,-315 48,81 122,155 234,189 147,46 298,42 437,109 127,61 224,140 282,231 -25,-114 -105,-227 -177,-284 -5,-4 -10,-8 -15,-12 -169,-124 -411,-93 -558,-204 -71,-54 -137,-122 -149,-237 62,75 132,133 233,172 162,63 312,52 469,146 56,33 109,85 148,147zm750 -246c30,-82 81,-167 157,-221 73,-52 147,-90 243,-115 184,-49 307,-74 347,-267 -88,114 -215,164 -406,210 -207,50 -376,176 -341,393z"/>
  <path class="fil1" d="M3822 2227c-79,119 -167,185 -305,224 -77,23 -171,33 -287,49 -153,21 -278,88 -367,175 -36,35 -67,75 -91,115 32,-130 105,-245 254,-333 63,-38 138,-82 234,-98 154,-25 262,-45 335,-86 141,-78 161,-196 176,-315 -48,81 -123,155 -234,189 -148,46 -298,42 -437,109 -128,61 -224,140 -282,231 25,-114 104,-227 177,-284 5,-4 10,-8 15,-12 168,-124 410,-93 557,-204 71,-54 138,-122 150,-237 -62,75 -132,133 -233,172 -162,63 -312,52 -469,146 -56,33 -109,85 -148,147 14,-122 88,-201 155,-254 5,-3 9,-7 14,-10 151,-112 340,-98 497,-186 71,-39 120,-98 143,-201 -56,68 -122,109 -213,144 -62,24 -137,48 -225,67 -73,15 -142,41 -200,75 -118,71 -221,202 -172,366 -51,83 -77,181 -51,275 -57,93 -75,196 -44,302 -50,85 -70,176 -57,258 74,-92 147,-165 216,-223 268,-227 494,-68 713,-228 96,-70 158,-187 179,-373zm-3108 242c-52,-5 -89,-20 -113,-46 -24,-26 -34,-63 -29,-111 4,-46 18,-80 43,-101 25,-21 61,-30 107,-26l25 2 108 9c13,1 24,2 32,2 7,0 16,1 26,0 -2,12 -4,24 -5,38 -1,14 -2,27 -2,38 -9,-1 -17,-3 -25,-4 -8,-1 -18,-3 -32,-4 -32,-4 -68,-8 -107,-11l-20 -2c-37,-3 -65,2 -84,14 -19,13 -30,34 -33,64 -2,29 6,52 24,68 19,17 48,27 86,31l11 1 107 8c15,2 26,2 34,3 8,0 16,0 24,0 -1,7 -2,15 -3,24 -1,9 -1,17 -1,24 -11,-3 -20,-5 -27,-6 -8,-1 -18,-2 -30,-4 -32,-4 -67,-7 -107,-11l-9 0zm3610 464c-31,-6 -65,-12 -102,-19 -39,-7 -73,-12 -103,-17 -16,-2 -28,-4 -36,-5 -7,-1 -15,-2 -22,-2l5 -25 3 -12 5 -30 9 -55c5,-30 16,-52 34,-66 17,-14 39,-19 65,-14 25,4 44,18 55,42 6,13 10,28 10,46 24,-8 52,-18 84,-31l29 -12c19,-8 32,-14 41,-17 8,-4 16,-8 23,-12 -3,12 -6,26 -9,42 -3,16 -5,30 -6,42 -20,6 -45,15 -75,26 -36,13 -67,24 -92,34l0 0c34,7 66,12 94,16 16,3 28,4 35,5 8,1 16,2 23,2 -3,11 -5,24 -8,38 -2,14 -4,26 -5,37 -7,-2 -15,-4 -22,-5 -8,-2 -19,-5 -35,-8zm-101 -87l3 -14c4,-17 0,-32 -11,-44 -10,-13 -26,-21 -46,-25 -18,-3 -32,-1 -43,6 -11,7 -18,19 -21,35 -1,7 -2,14 -2,21l120 21zm64 -245l-149 -2c0,16 0,32 0,48 1,18 2,31 3,37 -5,-1 -12,-1 -19,-1 -7,-1 -13,0 -19,1 1,-10 3,-26 4,-48 1,-23 2,-44 2,-64l1 -8 0 -8c0,-20 0,-41 -1,-63 0,-23 -1,-39 -2,-48 6,1 12,1 19,1 7,0 14,0 19,-1 -1,6 -2,19 -4,37 -1,16 -2,32 -2,49l149 2c35,1 62,1 81,1 19,0 41,-1 64,-2 -1,11 -2,24 -2,38 0,14 0,26 1,38 -24,-2 -45,-4 -64,-5 -19,0 -47,-1 -81,-2zm93 -186c-31,-11 -67,-23 -107,-36 -66,-21 -122,-37 -168,-49 0,-7 0,-14 0,-19 -1,-5 -2,-11 -3,-18 42,-19 94,-45 157,-77 37,-19 70,-36 100,-52 17,-9 29,-16 37,-20 7,-4 13,-8 18,-11 0,12 1,26 3,42 1,15 2,29 4,41 -16,6 -28,11 -36,14 -7,3 -14,6 -20,9l-34 16c-1,19 0,40 1,61 2,19 5,35 9,50 12,3 24,7 36,10 4,1 10,3 18,4 8,2 22,4 41,8 0,7 1,15 1,25 1,9 2,17 4,24 -5,-2 -12,-5 -20,-8 -8,-3 -22,-7 -41,-14zm-185 -93c22,7 47,15 73,22l36 11c0,-13 0,-26 -2,-41 -1,-14 -3,-29 -6,-42l-1 1c-37,17 -70,34 -100,49l0 0zm-3571 241c-15,3 -27,4 -35,6 -7,1 -15,3 -22,4 0,-6 0,-12 -1,-20 -1,-8 -2,-14 -4,-20 7,0 15,-1 23,-1 7,-1 19,-2 35,-3 31,-3 66,-7 105,-12 38,-5 72,-9 102,-14 16,-2 28,-4 35,-5 8,-2 15,-3 23,-5 0,7 0,15 1,23 1,8 3,16 4,22 -33,34 -73,77 -118,131l-80 95 61 -7c38,-5 73,-9 104,-14 15,-2 27,-4 34,-5 8,-2 16,-3 23,-5 0,6 0,13 1,21 1,7 2,14 4,20 -8,0 -15,0 -23,1 -7,0 -19,1 -35,3 -31,3 -66,7 -105,11 -64,8 -117,16 -160,22 0,-8 0,-14 -1,-20 -1,-6 -2,-13 -4,-21 41,-42 90,-97 147,-165l53 -63 -63 7c-38,5 -73,10 -104,14zm49 322c30,-7 64,-14 101,-23 38,-8 72,-16 102,-24 15,-4 27,-7 34,-9 7,-3 15,-5 22,-7 1,11 4,23 7,37 3,14 7,26 10,37 -7,1 -15,2 -22,3 -8,2 -20,4 -35,7 -31,6 -65,14 -102,22 -38,9 -72,17 -102,25 -15,4 -27,7 -34,9 -7,2 -15,5 -21,7 -2,-11 -5,-24 -8,-37 -3,-14 -6,-27 -10,-37 8,-1 15,-2 23,-4 8,-1 19,-3 35,-6zm224 58c13,-12 22,-21 28,-26 6,-6 12,-12 17,-18 4,12 8,25 14,39 5,15 11,28 16,39 -14,10 -24,17 -31,22 -6,5 -12,9 -17,14l-59 51 -86 75 0 0 79 -1c42,-1 79,-2 113,-3 2,0 7,0 15,-1 8,-1 23,-2 45,-4 1,7 4,15 7,23 4,9 7,16 10,23 -4,0 -10,-1 -18,-1 -9,0 -24,-1 -45,-2l-112 -1c-69,0 -127,1 -173,2 -2,-8 -5,-15 -7,-21 -2,-5 -5,-12 -9,-20 35,-29 79,-68 130,-114l83 -76zm-131 389c7,-3 14,-6 21,-9 7,-3 17,-9 31,-16 28,-15 60,-32 94,-51 35,-19 66,-37 93,-53 14,-8 24,-14 31,-18 6,-4 12,-8 18,-13 3,8 8,18 14,31 6,12 12,24 18,34l7 14c10,17 20,34 30,50 10,16 16,25 19,29 -6,2 -13,5 -20,9 -7,4 -13,8 -18,12 -1,-5 -6,-15 -13,-30 -7,-14 -14,-29 -22,-43l-4 -7 -10 -17 -91 51 18 32c7,11 14,23 21,35 8,12 13,20 16,24 -5,2 -12,5 -18,8 -7,4 -13,8 -18,12 -1,-5 -5,-14 -11,-27 -6,-12 -12,-24 -19,-36l-18 -32 -100 55 1 3 6 11c9,16 19,32 29,48 10,16 16,26 21,31 -7,2 -13,5 -20,9 -7,4 -14,8 -19,12 -5,-12 -12,-27 -21,-44 -8,-16 -15,-29 -20,-39l-8 -14c-6,-10 -12,-21 -19,-33 -8,-12 -14,-21 -19,-28zm168 175c26,-17 55,-37 86,-59 32,-22 60,-42 85,-60 13,-10 22,-17 28,-22 6,-5 12,-10 18,-14l13 21 7 10 18 26 33 44c17,25 24,48 22,71 -2,22 -14,41 -36,56 -21,15 -44,18 -69,9 -13,-4 -27,-13 -40,-25 -11,22 -23,49 -36,81l-13 29c-7,19 -13,33 -16,41 -4,9 -6,17 -9,25 -6,-11 -14,-23 -23,-36 -9,-13 -18,-25 -26,-34 11,-19 22,-43 36,-72 16,-34 29,-64 40,-89l0 0c-29,20 -55,38 -78,55 -13,10 -22,17 -28,22 -6,5 -12,9 -18,14 -5,-9 -12,-20 -20,-32 -9,-11 -16,-21 -23,-30 6,-4 13,-8 19,-12 7,-4 17,-10 30,-19zm133 -10l7 12c10,15 24,23 40,24 16,2 33,-3 50,-15 15,-11 23,-22 26,-35 3,-13 0,-26 -10,-39 -4,-6 -8,-12 -13,-17l-100 70zm286 196c7,-12 9,-24 8,-34 -2,-10 -7,-21 -17,-31 -9,-10 -20,-16 -32,-17 -12,-1 -22,2 -31,10 -9,9 -14,19 -14,32 0,12 4,32 13,58 8,27 11,50 7,69 -3,20 -13,37 -28,51 -22,21 -48,30 -77,27 -30,-3 -56,-16 -78,-40 -9,-10 -18,-21 -25,-34 -7,-13 -13,-26 -17,-39 11,-5 19,-10 27,-14 7,-4 15,-9 25,-15l7 7c-9,16 -12,30 -11,43 1,12 7,25 19,37 10,11 23,18 36,19 14,2 26,-2 36,-11 9,-9 14,-20 14,-33 0,-13 -5,-34 -14,-62 -8,-26 -11,-48 -7,-67 3,-18 12,-35 28,-49 21,-20 45,-29 72,-27 28,1 52,13 72,35 9,10 17,20 23,32 6,11 11,25 15,39 -8,4 -16,7 -22,10 -6,3 -14,6 -22,10l-7 -6zm-81 195c21,-23 44,-49 69,-78 26,-29 48,-56 68,-79 10,-13 17,-22 22,-28 5,-6 9,-12 13,-18 8,8 18,16 28,26 11,9 21,17 30,24 -5,5 -11,10 -16,16 -6,5 -14,14 -25,26 -20,23 -43,49 -69,78 -25,29 -48,55 -67,79 -11,12 -18,22 -23,28 -4,6 -9,12 -13,18 -8,-8 -17,-17 -28,-26 -11,-9 -21,-17 -30,-24 6,-5 11,-11 17,-16 5,-6 13,-14 24,-26zm203 55l81 -125c-13,-9 -27,-17 -41,-25 -16,-9 -27,-15 -33,-17 4,-5 8,-10 12,-16 3,-6 7,-11 9,-17 7,7 20,16 38,29 18,13 36,25 53,36l7 5 7 4c16,11 34,22 53,33 19,12 33,19 42,24 -4,4 -7,9 -11,15 -4,6 -7,12 -9,17 -5,-5 -15,-12 -30,-23 -13,-10 -26,-19 -40,-28l-81 125c-19,29 -33,52 -43,69 -10,16 -21,34 -33,55 -8,-7 -19,-14 -30,-22 -12,-7 -23,-14 -33,-19 14,-19 26,-36 37,-52 11,-16 26,-39 45,-68zm112 176c25,-22 53,-47 84,-75 52,-47 94,-87 127,-121 6,4 11,7 16,9 5,2 10,4 17,7 -4,46 -8,104 -11,174 -3,41 -4,79 -5,112 -1,20 -1,34 -1,43 0,8 0,15 0,21 -11,-6 -23,-12 -38,-19 -14,-6 -26,-12 -38,-16 3,-18 5,-30 6,-38 1,-8 2,-16 3,-22l3 -38c-17,-10 -35,-20 -54,-29 -17,-8 -32,-14 -47,-18 -9,9 -18,18 -27,26 -3,3 -7,8 -12,14 -6,6 -15,17 -28,32 -6,-4 -14,-8 -22,-12 -8,-4 -16,-7 -23,-9 5,-3 10,-8 17,-13 6,-6 17,-15 33,-28zm172 -114c-17,16 -35,33 -55,52l-27 26c10,6 22,12 36,18 13,7 26,12 39,17l0 -2c3,-40 6,-77 7,-111l0 0zm308 84c-1,-14 -5,-25 -11,-33 -7,-8 -17,-14 -30,-18 -14,-4 -26,-3 -37,2 -11,5 -18,13 -21,25 -3,12 -2,23 4,34 7,11 20,25 41,44 21,18 35,37 42,55 7,18 8,38 2,58 -8,29 -26,50 -52,63 -27,13 -56,14 -87,5 -14,-3 -26,-9 -39,-16 -13,-7 -24,-15 -35,-25 7,-9 12,-18 16,-25 4,-7 9,-16 14,-26l9 2c1,18 5,32 13,42 7,11 19,18 35,23 15,4 29,3 41,-2 13,-6 21,-16 25,-29 3,-12 2,-24 -5,-35 -7,-11 -21,-26 -44,-46 -20,-18 -33,-36 -40,-53 -7,-18 -8,-37 -2,-57 8,-28 24,-48 49,-61 24,-13 50,-15 79,-7 13,4 25,9 36,16 12,6 23,15 34,26 -6,7 -11,14 -15,19 -4,6 -8,13 -13,21l-9 -2zm187 245c-1,16 -2,28 -2,36 0,7 0,15 0,22 -6,-1 -13,-2 -20,-3 -8,0 -15,-1 -21,0 2,-7 3,-15 4,-23 1,-7 3,-19 4,-35 4,-31 7,-66 11,-104 3,-39 6,-73 8,-104 1,-16 1,-28 1,-35 1,-8 1,-16 0,-23 7,1 15,2 23,3 8,1 16,1 23,1 26,39 60,87 103,143l76 97 6 -60c3,-39 6,-73 8,-105 1,-15 2,-27 2,-35 0,-8 0,-15 0,-23 6,2 13,3 20,3 8,1 15,1 21,1 -1,7 -3,14 -4,22 -1,8 -2,20 -4,35 -4,31 -7,66 -10,105 -6,64 -10,118 -12,161 -8,-1 -15,-2 -21,-3 -5,0 -12,0 -21,0 -33,-49 -76,-108 -130,-179l-51 -65 -6 64c-3,38 -6,73 -8,104zm318 79c0,-7 0,-15 0,-23 0,-7 -1,-19 -2,-35 -2,-32 -5,-67 -8,-107 -3,-39 -7,-75 -10,-106 -2,-16 -4,-28 -5,-35 -1,-8 -2,-15 -4,-23 9,1 20,1 34,0 14,0 27,-1 39,-2l15 -2c20,-1 39,-3 58,-6 18,-2 30,-4 34,-6 0,7 0,14 0,22 1,8 2,15 4,22 -6,-1 -16,-1 -33,-1 -16,1 -32,2 -49,3l-7 1 -19 2 9 103 36 -3c14,-1 27,-3 41,-5 14,-2 23,-3 28,-5 0,6 0,13 1,21 0,8 1,14 3,20 -5,0 -15,0 -29,0 -14,1 -27,1 -41,3l-36 3 10 114 2 0 13 -1c18,-2 37,-4 55,-7 19,-2 31,-4 37,-6 -1,6 0,14 0,22 1,8 2,15 4,21 -14,0 -30,1 -49,2 -18,1 -33,2 -44,3l-15 1c-12,1 -25,2 -39,4 -14,2 -25,4 -33,6zm400 -58c-54,13 -101,10 -141,-10 -40,-20 -65,-53 -77,-100 -13,-51 -7,-97 18,-136 25,-40 65,-66 119,-80 19,-4 39,-7 61,-8 22,0 42,1 59,5 0,11 0,20 0,27 0,8 0,17 1,28l-5 1c-15,-13 -30,-22 -47,-26 -17,-4 -35,-4 -54,1 -35,8 -59,28 -73,59 -14,30 -16,68 -5,111 10,38 27,66 53,84 25,17 55,22 89,13 15,-3 29,-9 42,-16 -1,-16 -4,-35 -9,-55 -5,-21 -12,-40 -19,-56 11,-2 23,-5 37,-9 14,-3 27,-7 38,-11 0,6 0,13 2,20 1,8 4,20 8,37l3 12c5,19 9,33 11,40 2,8 5,15 7,20 -32,21 -71,37 -118,49zm190 -57c-2,-7 -5,-14 -7,-21 -3,-7 -7,-19 -12,-34 -11,-29 -25,-62 -39,-99 -15,-37 -29,-70 -41,-99 -7,-14 -12,-25 -15,-32 -3,-7 -7,-14 -10,-20 8,-2 19,-6 32,-10 13,-5 25,-9 36,-14l14 -5c19,-8 37,-16 54,-23 17,-8 27,-13 31,-16 1,6 4,13 7,21 3,7 6,14 9,19 -5,1 -15,4 -31,9 -15,6 -30,11 -46,18l-7 3 -18 7 39 96 34 -14c13,-5 25,-10 38,-16 13,-6 21,-10 25,-13 2,6 4,12 7,19 3,8 6,14 9,19 -5,1 -14,4 -28,8 -13,5 -26,9 -38,15l-34 13 43 106 2 0 12 -5c17,-7 34,-14 51,-22 17,-8 28,-14 33,-17 2,6 4,13 7,20 3,8 6,15 10,20 -13,4 -29,9 -46,16 -18,6 -32,11 -42,15l-14 6c-11,5 -23,10 -36,16 -12,5 -22,10 -29,14zm188 -149c-15,-27 -33,-57 -52,-90 -19,-34 -37,-64 -53,-90 -8,-14 -14,-24 -19,-30 -4,-7 -8,-13 -12,-19l22 -11 11 -7 27 -15 47 -29c26,-15 50,-20 72,-16 22,4 40,18 53,41 13,22 14,46 4,69 -6,13 -16,26 -30,38 22,12 48,27 78,43l28 15c18,9 31,16 40,20 8,4 16,8 23,11 -11,5 -24,12 -37,20 -14,8 -26,15 -37,22 -17,-12 -40,-25 -68,-41 -32,-19 -61,-35 -85,-48l0 0c17,31 33,58 48,82 8,14 15,24 19,30 4,7 9,13 13,19 -10,5 -21,11 -34,18 -12,7 -23,14 -32,20 -3,-6 -6,-13 -10,-20 -3,-7 -9,-18 -16,-32zm2 -133l12 -6c15,-9 24,-21 27,-38 3,-16 -1,-33 -11,-51 -9,-15 -20,-25 -32,-29 -13,-4 -26,-2 -40,6 -7,4 -12,8 -18,12l62 106zm242 -15c-18,-25 -38,-54 -61,-85 -23,-31 -43,-59 -62,-83 -10,-13 -17,-22 -22,-28 -5,-6 -10,-12 -15,-17 10,-6 20,-14 32,-22 11,-8 21,-16 30,-23 4,6 7,12 12,19 4,6 10,16 19,30 18,25 38,53 61,84 23,32 43,60 62,84 10,13 17,22 22,28 5,6 10,12 15,17 -10,6 -20,13 -32,22 -11,8 -21,16 -30,23 -4,-6 -8,-13 -12,-19 -4,-7 -11,-17 -19,-30zm63 -324c-3,-3 -7,-7 -13,-12 -6,-5 -17,-13 -32,-25 8,-8 17,-17 26,-27 10,-10 18,-19 25,-28 36,36 62,62 79,78 17,16 32,30 47,43l19 17 52 44c30,27 47,56 51,86 4,29 -5,56 -27,81l-22 -8c10,-13 13,-26 9,-39 -5,-15 -21,-33 -46,-55l-63 -59c-39,-37 -74,-69 -105,-96zm244 49c-15,-30 -33,-63 -54,-99 -34,-61 -64,-112 -89,-151 5,-5 9,-10 12,-14 3,-4 7,-9 11,-15 44,14 100,31 167,50 40,12 76,22 108,30 19,5 33,9 41,11 8,2 15,3 21,4 -8,10 -17,20 -27,33 -9,12 -17,23 -24,33 -16,-6 -28,-11 -36,-14 -7,-3 -15,-5 -21,-7l-36 -12c-14,14 -27,29 -40,46 -12,14 -21,28 -28,42 6,11 13,22 19,32 2,3 6,9 11,15 4,7 13,18 25,34 -5,5 -11,12 -17,19 -5,7 -10,14 -14,20 -2,-5 -5,-11 -9,-19 -4,-8 -10,-21 -20,-38zm-72 -194c11,20 24,42 38,65l19 33c9,-9 18,-20 27,-31 9,-12 17,-24 24,-35l-2 -1c-38,-11 -74,-22 -106,-31l0 0zm298 -122c14,7 25,12 32,16 7,3 13,6 20,9 -6,10 -12,20 -19,33 -7,12 -13,24 -18,34 -6,-4 -12,-9 -19,-13 -6,-4 -16,-10 -30,-18 -27,-16 -57,-33 -91,-51 -34,-19 -64,-36 -91,-50 -15,-8 -25,-13 -32,-16 -7,-4 -14,-7 -21,-10 6,-9 13,-20 20,-32 7,-13 13,-24 17,-34 6,4 12,8 19,12 7,4 17,11 30,19 24,14 50,28 79,44l0 -1c-8,-23 -18,-49 -30,-80l-12 -29c-4,-10 -8,-20 -12,-28 -4,-9 -10,-21 -19,-37 5,-7 10,-15 16,-25 5,-10 10,-19 13,-27 2,6 4,14 7,24 3,10 9,27 18,52l20 59 14 39 53 -4c38,-3 73,-6 104,-9 46,-5 69,-8 71,-8 -8,12 -15,25 -24,40 -8,15 -15,29 -21,41 -10,-1 -19,-1 -28,-1 -9,0 -22,1 -39,2l-11 0c-36,2 -67,4 -93,7l0 0c27,15 53,29 77,42zm100 -177c-24,-22 -53,-47 -84,-74 -53,-46 -99,-83 -136,-112 3,-6 6,-12 7,-17 2,-4 3,-10 5,-17 46,-2 104,-5 174,-10 42,-3 79,-6 112,-9 20,-2 34,-3 42,-4 9,-1 16,-2 22,-3 -5,11 -10,25 -15,39 -4,15 -8,29 -11,40 -18,0 -31,-1 -39,-1 -8,0 -15,0 -22,0l-38 2c-8,18 -15,36 -22,57 -6,17 -10,33 -12,49 10,8 20,16 29,23 4,3 9,6 15,11 7,4 19,12 36,23 -3,7 -6,15 -9,24 -3,8 -5,16 -7,24 -4,-5 -9,-10 -15,-15 -6,-6 -17,-16 -32,-30zm-134 -157c18,15 37,31 58,48l29 24c6,-11 10,-24 15,-38 4,-14 8,-28 11,-41l-2 0c-40,2 -77,4 -111,7l0 0zm-2023 40c40,48 112,25 187,11 61,-11 117,-37 161,-27 31,7 53,27 68,70 -31,-8 -61,-10 -94,-8 -54,2 -103,12 -159,27 -80,22 -115,50 -155,40 -35,-9 -30,-54 -8,-113zm-55 147c48,45 126,18 208,0 67,-15 128,-44 177,-37 35,5 60,24 79,66 -34,-6 -68,-6 -104,-3 -59,6 -114,18 -175,37 -87,27 -125,56 -170,49 -40,-7 -37,-52 -15,-112zm-48 132c25,37 56,54 99,50 37,-4 78,-17 120,-29 72,-20 145,-49 198,-41 39,5 66,28 78,72 -37,-5 -70,-8 -109,-4 -66,5 -125,24 -192,43 -95,27 -137,49 -186,42 -49,-6 -32,-72 -8,-133zm-56 163c28,37 64,54 113,50 43,-4 90,-17 139,-29 82,-20 164,-62 225,-55 44,6 75,47 89,92 -41,-11 -79,-14 -124,-11 -75,6 -143,25 -220,44 -109,27 -167,63 -223,56 -56,-7 -27,-87 1,-147zm601 226c-5,0 -15,0 -25,0 -35,-75 -83,-131 -230,-79 -67,24 -136,45 -205,64 -121,32 -188,-3 -210,-88 76,-206 151,-412 227,-617 19,28 41,52 65,46 78,-20 151,-52 230,-69 66,-14 120,-1 148,43 28,-44 82,-57 148,-43 79,17 152,49 230,69 24,6 46,-18 65,-46 76,205 151,411 226,617 -21,85 -88,120 -209,88 -69,-19 -138,-40 -205,-64 -147,-52 -195,4 -230,79 -10,0 -20,0 -25,0zm441 -668c-40,48 -111,25 -186,11 -61,-11 -118,-37 -161,-27 -31,7 -53,27 -68,70 31,-8 61,-10 93,-8 54,2 104,12 160,27 79,22 115,50 155,40 35,-9 30,-54 7,-113zm55 147c-47,45 -125,18 -208,0 -67,-15 -128,-44 -176,-37 -36,5 -61,24 -80,66 35,-6 69,-6 104,-3 60,6 115,18 176,37 87,27 125,56 170,49 39,-7 36,-52 14,-112zm49 132c-25,37 -57,54 -99,50 -37,-4 -78,-17 -121,-29 -71,-20 -144,-49 -197,-41 -39,5 -67,28 -79,72 38,-5 71,-8 110,-4 66,5 125,24 192,43 95,27 137,49 186,42 49,-6 32,-72 8,-133zm56 163c-28,37 -65,54 -113,50 -43,-4 -90,-17 -139,-29 -82,-20 -164,-62 -225,-55 -45,6 -75,47 -89,92 41,-11 79,-14 123,-11 75,6 144,25 221,44 109,27 166,63 222,56 57,-7 28,-87 0,-147zm-996 -1589c-30,-82 -82,-167 -157,-221 -73,-52 -147,-90 -243,-115 -184,-49 -307,-74 -347,-267 88,114 215,164 406,210 207,50 376,176 341,393zm40 246c-15,-122 -88,-201 -155,-254 -5,-3 -9,-7 -14,-10 -151,-112 -340,-98 -497,-186 -71,-39 -120,-98 -143,-201 56,68 122,109 213,144 62,24 137,48 225,67 73,15 142,41 199,75 119,71 222,202 173,366 51,83 77,181 51,275 57,93 75,196 44,302 50,85 70,176 57,258 -74,-92 -147,-165 -216,-223 -269,-227 -495,-68 -713,-228 -96,-70 -158,-187 -179,-373 79,119 167,185 305,224 77,23 170,33 287,49 153,21 278,88 366,175 37,35 68,75 92,115 -32,-130 -106,-245 -254,-333 -63,-38 -138,-82 -234,-98 -154,-25 -262,-45 -336,-86 -140,-78 -160,-196 -175,-315 48,81 122,155 234,189 147,46 298,42 437,109 127,61 224,140 282,231 -25,-114 -105,-227 -177,-284 -5,-4 -10,-8 -15,-12 -169,-124 -411,-93 -558,-204 -71,-54 -137,-122 -149,-237 62,75 132,133 233,172 162,63 312,52 469,146 56,33 109,85 148,147zm750 -246c30,-82 81,-167 157,-221 73,-52 147,-90 243,-115 184,-49 307,-74 347,-267 -88,114 -215,164 -406,210 -207,50 -376,176 -341,393z"/>
  <path class="fil2" d="M2491 1712c-41,-143 -34,-272 108,-398 103,-90 120,-226 103,-370 105,166 156,333 -4,486 -101,97 -177,153 -207,282zm-190 -352c-180,-254 -74,-413 48,-578 103,-140 159,-299 162,-455 24,114 42,233 21,343 -14,74 -48,155 -107,223 -130,148 -130,279 -124,467zm110 170c-105,-174 -75,-339 59,-502 104,-127 127,-282 110,-449 115,243 113,444 -9,588 -113,133 -163,245 -160,363z"/>
  <path class="fil3" d="M2501 5036c-107,76 -229,94 -358,75 -130,-19 -268,-76 -406,-147l0 0 -29 -16c-242,-126 -470,-245 -683,-207l-10 2 -3 -10c-30,-118 -93,-228 -174,-331 -82,-104 -183,-201 -290,-295 -119,-105 -221,-212 -290,-329l0 0c-67,-116 -101,-241 -83,-381 -102,-57 -153,-164 -169,-307 -16,-143 3,-322 43,-522l0 0c24,-114 44,-229 47,-342 4,-114 -10,-227 -53,-340l-3 -7 6 -5c89,-80 157,-178 215,-287 57,-110 104,-231 150,-354 60,-161 131,-309 229,-415 97,-105 219,-169 382,-162 -1,-64 16,-125 53,-180 37,-52 92,-98 169,-131 203,-86 424,-131 641,-174 216,-43 428,-86 612,-169l4 -2 4 2c167,66 357,104 554,144 237,48 482,98 706,199 76,35 130,81 165,133 36,53 51,114 50,178 163,-7 285,57 382,162 98,106 169,254 229,415 47,123 93,244 151,354 57,109 125,207 215,287l5 5 -2 7c-44,113 -57,226 -54,340 3,113 23,228 47,342l0 0c40,200 60,379 44,522 -16,143 -68,250 -170,307 18,140 -16,265 -83,381l0 0c-69,117 -171,224 -290,329 -107,94 -208,191 -289,295 -82,103 -145,213 -175,331l-3 10 -10 -2c-213,-38 -441,81 -683,207l-29 16 0 0c-137,71 -275,128 -406,147 -129,19 -251,1 -358,-75zm-7 -387c-97,68 -208,83 -325,66 -118,-17 -244,-67 -368,-131l-27 -14c-219,-112 -426,-218 -619,-184l-10 2 -3 -10c-27,-105 -84,-202 -158,-294 -74,-92 -166,-179 -262,-262 -108,-94 -201,-189 -263,-294 -61,-103 -92,-214 -76,-339 -93,-51 -139,-146 -154,-273 -14,-128 4,-288 40,-466l0 0c22,-102 40,-203 43,-304 2,-101 -10,-201 -49,-302l-3 -7 6 -5c81,-71 143,-159 195,-256 52,-97 94,-205 136,-314 55,-143 119,-276 208,-370 88,-94 199,-150 346,-145 -1,-58 15,-117 50,-167 33,-46 83,-85 153,-109 165,-56 341,-94 516,-132 218,-48 434,-95 620,-174l4 -1 4 1c186,79 401,126 620,174 174,38 351,76 515,132 71,24 121,63 154,109 35,50 50,109 50,167 147,-5 258,51 346,145 88,94 153,227 208,370 42,109 84,217 136,314 52,97 114,185 195,256l6 5 -3 7c-39,101 -52,201 -49,302 3,101 21,202 43,304l0 0c36,178 54,338 39,466 -14,127 -61,222 -153,273 16,125 -15,236 -76,339 -62,105 -155,200 -263,294 -97,83 -188,170 -262,262 -74,92 -131,189 -159,294l-2 10 -10 -2c-193,-34 -400,72 -619,184l-27 14c-125,64 -250,114 -368,131 -118,17 -228,2 -325,-66zm-322 45c115,16 222,0 315,-67l7 -5 6 5c94,67 201,83 316,67 115,-17 238,-67 361,-130l27 -13c218,-112 425,-218 623,-188 29,-105 86,-202 159,-293 76,-93 168,-181 265,-265 107,-92 199,-186 259,-288 60,-101 90,-210 72,-333l-1 -8 7 -3c90,-46 135,-137 149,-260 14,-125 -4,-282 -39,-458l0 0c-23,-103 -41,-206 -44,-308 -3,-101 10,-203 48,-304 -81,-71 -142,-159 -194,-256 -53,-99 -95,-207 -138,-317 -54,-141 -117,-271 -203,-363 -86,-91 -195,-146 -341,-137l-12 0 0 -12c3,-57 -10,-116 -45,-165 -30,-43 -77,-79 -143,-101 -163,-55 -339,-94 -513,-132 -218,-47 -433,-94 -619,-173 -186,79 -402,126 -619,173 -174,38 -350,77 -514,132 -65,22 -112,58 -142,101 -35,49 -48,108 -45,165l0 12 -12 0c-146,-9 -255,46 -341,137 -86,92 -149,222 -203,363 -43,110 -85,218 -138,317 -52,97 -113,185 -194,256 38,101 50,203 48,304 -3,102 -22,205 -44,308l0 0c-35,176 -53,333 -39,458 14,123 59,214 149,260l7 3 -1 8c-18,123 12,232 72,333 60,102 152,196 258,288 98,84 190,172 265,265 74,91 131,188 160,293 197,-30 404,76 623,188l27 13c122,63 245,113 361,130zm329 143c-102,72 -218,89 -341,71 -125,-18 -257,-72 -388,-140l-28 -14c-230,-119 -448,-232 -651,-196l-10 2 -3 -10c-28,-112 -88,-216 -166,-313 -78,-98 -174,-190 -276,-279 -113,-99 -211,-201 -276,-312 -65,-109 -97,-227 -80,-360 -97,-54 -146,-156 -162,-290 -15,-136 4,-306 42,-495l0 0c23,-108 42,-216 45,-324 3,-107 -10,-214 -51,-321l-3 -7 6 -5c85,-75 150,-168 205,-272 54,-104 99,-218 143,-334 58,-152 125,-293 219,-393 92,-100 208,-160 364,-154 -1,-62 15,-124 52,-178 34,-49 87,-90 161,-116 173,-58 358,-99 542,-140 230,-51 457,-101 652,-184l8 -1c175,69 375,112 577,156 212,46 427,92 618,170 74,30 127,72 161,122 36,52 52,111 51,171 156,-6 272,54 364,154 94,100 161,241 219,393 44,116 89,230 144,334 54,104 119,197 205,272l5 5 -2 7c-42,107 -55,214 -52,321 3,108 22,216 45,324l0 0c38,189 57,359 42,495 -15,135 -65,236 -162,290 17,133 -15,251 -79,360 -66,111 -164,213 -277,312 -102,89 -198,181 -276,279 -78,97 -137,201 -166,313l-3 10 -10 -2c-203,-36 -421,77 -651,196l-28 14c-131,68 -263,122 -387,140 -124,18 -240,1 -342,-71zm-338 49c120,18 233,1 332,-71l6 -5 7 5c98,72 211,89 331,71 122,-18 252,-70 381,-137l28 -15c230,-119 447,-232 655,-199 31,-112 91,-215 168,-312 79,-99 176,-192 278,-282 112,-97 209,-197 273,-306 63,-107 94,-223 75,-354l-1 -8 7 -3c95,-49 142,-146 157,-277 15,-133 -4,-301 -41,-488l0 0c-23,-109 -43,-218 -46,-327 -3,-107 10,-215 50,-323 -85,-76 -149,-169 -204,-272 -55,-105 -100,-220 -144,-337 -57,-150 -124,-288 -215,-387 -90,-97 -204,-155 -358,-145l-13 0 1 -12c3,-60 -11,-119 -47,-170 -32,-46 -82,-86 -152,-114 -189,-77 -402,-123 -614,-169 -201,-43 -400,-86 -576,-154 -195,83 -422,133 -651,183 -183,41 -368,82 -540,140 -69,24 -118,62 -150,108 -37,53 -51,115 -48,176l1 12 -12 0c-154,-10 -269,48 -359,145 -91,99 -158,237 -214,387 -45,117 -90,232 -145,337 -54,103 -119,196 -204,272 40,108 53,216 50,323 -3,109 -22,218 -46,327l0 0c-37,187 -56,355 -41,488 15,131 62,228 157,277l7 3 -1 8c-19,131 12,247 76,354 63,109 160,209 272,306 102,90 199,183 278,282 77,97 137,200 168,312 208,-33 425,80 655,199l29 15c128,66 258,119 380,137zm-17 203c127,19 246,1 349,-75l6 -5 7 5c103,76 221,94 348,75 128,-19 263,-74 399,-145l0 0 29 -15c241,-126 470,-245 687,-211 32,-118 95,-227 176,-330 83,-105 185,-203 292,-297 118,-104 219,-209 286,-324l0 0c66,-114 99,-237 79,-375l-1 -8 7 -3c99,-52 149,-155 165,-293 16,-141 -4,-318 -43,-516l0 0c-25,-115 -45,-230 -48,-346 -3,-113 10,-227 52,-341 -89,-80 -157,-179 -214,-288 -58,-111 -105,-233 -151,-356 -60,-158 -130,-305 -225,-409 -95,-102 -215,-164 -377,-154l-12 1 1 -12c3,-64 -11,-124 -46,-177 -33,-49 -84,-92 -156,-124 -222,-101 -466,-151 -702,-198 -195,-40 -385,-79 -553,-144 -185,83 -396,125 -612,168 -215,44 -435,88 -636,174 -73,31 -126,74 -160,123 -36,53 -52,115 -49,178l1 12 -12 -1c-162,-10 -282,52 -377,154 -95,104 -165,251 -225,409 -46,123 -93,245 -151,356 -57,109 -125,208 -214,288 42,114 55,228 52,341 -3,116 -23,231 -47,346l0 0c-40,198 -59,375 -44,516 16,138 66,241 165,293l7 3 -1 8c-19,138 13,261 79,375l0 0c67,115 169,220 286,324 107,94 209,192 292,297 81,103 144,212 176,330 218,-34 446,85 687,211l30 15 0 0c135,71 271,126 398,145z"/>
 </g>
</svg>
